<?xml version="1.0" standalone="no"?>
<!DOCTYPE svg PUBLIC "-//W3C//DTD SVG 20010904//EN"
 "http://www.w3.org/TR/2001/REC-SVG-20010904/DTD/svg10.dtd">
<svg version="1.0" xmlns="http://www.w3.org/2000/svg"
 width="700.000000pt" height="332.000000pt" viewBox="0 0 700.000000 332.000000"
 preserveAspectRatio="xMidYMid meet">

<g transform="translate(0.000000,332.000000) scale(0.100000,-0.100000)"
fill="#000000" stroke="none">
<path d="M5146 2584 c-9 -8 -16 -22 -16 -30 0 -23 39 -56 59 -49 11 3 26 -4
39 -18 21 -22 22 -26 7 -60 -28 -68 -16 -138 33 -190 39 -42 75 -57 132 -57
131 0 215 126 165 247 -15 35 -14 37 7 60 12 13 29 21 36 18 21 -8 62 22 62
45 0 24 -26 50 -51 50 -11 0 -41 -20 -67 -45 l-48 -44 -40 14 c-21 8 -50 14
-64 14 -14 0 -43 -6 -64 -14 l-40 -14 -48 44 c-50 48 -77 55 -102 29z"/>
<path d="M4698 2327 c-98 -28 -175 -105 -204 -205 -46 -156 58 -313 232 -352
65 -15 159 1 304 50 63 21 115 38 116 37 1 -1 -1 -22 -6 -46 -22 -124 61 -348
179 -482 73 -83 121 -86 194 -11 53 55 132 192 163 285 22 64 28 100 28 165 0
71 2 82 15 76 250 -104 415 -100 526 11 62 62 80 106 80 200 -1 92 -19 137
-82 196 -88 84 -189 105 -336 70 -124 -30 -263 -89 -567 -243 -312 -158 -427
-201 -546 -202 -72 -1 -85 2 -122 27 -117 77 -106 244 21 308 35 18 53 21 117
16 83 -6 247 -57 242 -76 -5 -26 27 -78 57 -90 61 -26 121 14 121 80 0 52 -22
73 -121 113 -177 72 -322 98 -411 73z m1445 -127 c63 -43 95 -123 77 -191 -25
-91 -114 -147 -219 -136 -75 8 -248 63 -267 85 -8 9 -25 30 -37 45 -30 38 -85
41 -121 8 -39 -37 -40 -64 -5 -137 17 -35 29 -67 27 -70 -3 -2 -84 -3 -181 -2
l-177 3 24 51 c13 28 40 64 60 81 83 68 349 198 531 260 84 28 112 33 176 31
61 -2 82 -8 112 -28z m-553 -512 c0 -7 -3 -23 -6 -35 -6 -23 -9 -23 -165 -23
-120 0 -159 3 -159 13 0 6 -3 22 -6 35 l-6 22 171 0 c130 0 171 -3 171 -12z
m-70 -174 c0 -3 -8 -19 -17 -35 -16 -27 -21 -29 -83 -29 -62 0 -67 2 -83 29
-9 16 -17 32 -17 35 0 3 45 6 100 6 55 0 100 -3 100 -6z"/>
<path d="M770 1940 c-19 -19 -20 -33 -20 -500 l0 -481 25 -24 c29 -30 55 -32
86 -6 l24 19 5 314 5 313 19 -50 c61 -160 240 -583 254 -597 19 -23 54 -23 80
0 12 9 78 155 149 327 l128 310 5 -298 5 -299 25 -20 c25 -20 73 -19 95 3 6 6
10 175 10 495 0 469 -1 486 -19 500 -26 18 -65 18 -86 -1 -9 -8 -90 -193 -180
-410 -91 -217 -167 -395 -170 -395 -3 0 -79 178 -170 395 -90 217 -171 402
-180 410 -23 21 -66 19 -90 -5z"/>
<path d="M1920 1589 c-72 -29 -142 -101 -170 -176 -68 -181 -10 -389 130 -467
47 -26 66 -31 147 -34 89 -4 97 -3 157 27 69 33 126 89 126 121 0 25 -34 60
-59 60 -10 0 -35 -16 -56 -35 -66 -63 -127 -83 -194 -65 -72 19 -122 75 -136
153 l-7 37 220 0 c184 0 222 2 232 15 18 22 7 149 -18 207 -26 60 -84 124
-136 150 -61 31 -166 34 -236 7z m199 -116 c28 -22 65 -82 75 -125 l6 -28
-169 0 -169 0 10 38 c24 90 96 147 177 139 24 -3 55 -14 70 -24z"/>
<path d="M2932 1596 c-114 -37 -189 -132 -212 -267 -30 -177 57 -355 197 -403
72 -25 187 -21 248 8 123 57 171 186 70 186 -23 0 -41 -10 -66 -36 -51 -53
-83 -67 -146 -62 -132 11 -207 170 -158 334 24 82 102 144 180 144 35 -1 99
-36 133 -74 36 -40 69 -46 95 -18 40 44 -1 116 -94 167 -64 34 -176 44 -247
21z"/>
<path d="M4460 1597 c-16 -8 -26 -23 -28 -41 -2 -19 36 -135 109 -328 l113
-299 -19 -37 c-11 -20 -57 -74 -102 -119 -46 -45 -83 -87 -83 -93 0 -16 47
-60 64 -60 24 0 133 88 177 143 62 78 108 177 212 458 127 341 122 325 103
354 -22 34 -79 35 -100 2 -8 -12 -46 -114 -84 -227 -38 -113 -76 -220 -83
-238 l-14 -34 -89 244 c-61 169 -95 250 -113 266 -28 26 -30 26 -63 9z"/>
<path d="M2397 1582 c-15 -16 -17 -54 -17 -325 0 -294 1 -308 20 -327 23 -23
58 -26 86 -6 17 13 19 31 24 213 5 182 8 202 29 246 28 57 67 84 133 93 53 7
81 31 81 69 0 45 -21 58 -84 53 -64 -5 -101 -28 -136 -86 l-23 -37 0 46 c0 32
-6 51 -18 62 -25 22 -75 21 -95 -1z"/>
<path d="M3356 1581 c-16 -18 -17 -42 -14 -248 3 -212 5 -231 26 -279 44 -96
120 -146 224 -146 71 0 136 29 178 80 l30 37 0 -36 c0 -24 7 -42 23 -57 29
-27 57 -28 88 -3 l24 19 3 289 c2 158 0 298 -3 310 -8 34 -33 53 -70 53 -59 0
-65 -19 -65 -225 0 -99 -5 -197 -10 -217 -13 -44 -52 -93 -91 -113 -40 -21
-108 -19 -146 5 -64 39 -67 52 -73 291 -4 195 -7 219 -24 238 -24 27 -77 28
-100 2z"/>
<path d="M4037 1582 c-15 -16 -17 -54 -17 -325 0 -294 1 -308 20 -327 11 -11
31 -20 45 -20 14 0 34 9 45 20 18 18 20 33 20 174 0 275 32 352 154 371 66 10
73 14 86 45 10 25 10 34 -5 56 -16 24 -21 26 -74 22 -65 -5 -97 -24 -135 -83
l-26 -39 0 45 c0 32 -6 51 -18 62 -25 22 -75 21 -95 -1z"/>
</g>
</svg>
